{"asset":{"generator":"Generated by PixyzSDK 2024.2.0.52","version":"2.0"},"nodes":[{"name":"default","matrix":[50,0,1.38777878e-15,0,-1.38777878e-15,50,0,0,2.77555756e-15,5.55111512e-15,50,0,-0.250436306,-4.06116915,-1.42567968,1],"mesh":0}],"scenes":[{"name":"Root","nodes":[0]}],"scene":0,"buffers":[{"byteLength":113376,"uri":"gltf.bin"}],"bufferViews":[{"buffer":0,"byteOffset":0,"byteLength":34020,"byteStride":12,"target":34962},{"buffer":0,"byteOffset":68016,"byteLength":45360,"byteStride":16,"target":34962},{"buffer":0,"byteOffset":34020,"byteLength":33996,"target":34963}],"accessors":[{"bufferView":0,"count":2835,"componentType":5126,"type":"VEC3","byteOffset":0,"min":[-0.51221019,-0.153618291,-0.337485492],"max":[0.515304685,0.178254873,0.384585857]},{"bufferView":1,"count":2835,"componentType":5126,"type":"VEC4","byteOffset":0,"min":[0.00392156886,0.00392156886,0.00784313772,1],"max":[0.890196085,0.835294127,0.772549033,1]},{"bufferView":2,"count":16998,"componentType":5123,"type":"SCALAR","byteOffset":0,"min":[0],"max":[2834]}],"meshes":[{"primitives":[{"mode":4,"indices":2,"attributes":{"POSITION":0,"COLOR_0":1}}]}],"samplers":[{}],"extensions":{}}